solid OpenSCAD_Model
  facet normal -1 0 0
    outer loop
      vertex 0 0 0
      vertex 0 0 50
      vertex 0 50 0
    endloop
  endfacet
  facet normal -1 0 0
    outer loop
      vertex 0 50 0
      vertex 0 0 50
      vertex 0 50 50
    endloop
  endfacet
  facet normal 0 -1 0
    outer loop
      vertex 0 0 50
      vertex 0 0 0
      vertex 50 0 0
    endloop
  endfacet
  facet normal 0 -1 0
    outer loop
      vertex 50 0 50
      vertex 0 0 50
      vertex 50 0 0
    endloop
  endfacet
  facet normal 0 0 -1
    outer loop
      vertex 0 0 0
      vertex 0 50 0
      vertex 50 0 0
    endloop
  endfacet
  facet normal 0 0 -1
    outer loop
      vertex 50 0 0
      vertex 0 50 0
      vertex 50 50 0
    endloop
  endfacet
  facet normal 0 1 0
    outer loop
      vertex 0 50 0
      vertex 0 50 50
      vertex 50 50 0
    endloop
  endfacet
  facet normal 0 1 0
    outer loop
      vertex 50 50 0
      vertex 0 50 50
      vertex 50 50 50
    endloop
  endfacet
  facet normal 0 0 1
    outer loop
      vertex 3 3 50
      vertex 0 0 50
      vertex 50 0 50
    endloop
  endfacet
  facet normal 0 0 1
    outer loop
      vertex 3 47 50
      vertex 0 50 50
      vertex 3 3 50
    endloop
  endfacet
  facet normal 0 0 1
    outer loop
      vertex 47 3 50
      vertex 3 3 50
      vertex 50 0 50
    endloop
  endfacet
  facet normal 0 0 1
    outer loop
      vertex 0 50 50
      vertex 0 0 50
      vertex 3 3 50
    endloop
  endfacet
  facet normal 0 0 1
    outer loop
      vertex 50 50 50
      vertex 0 50 50
      vertex 3 47 50
    endloop
  endfacet
  facet normal 0 0 1
    outer loop
      vertex 50 50 50
      vertex 47 47 50
      vertex 50 0 50
    endloop
  endfacet
  facet normal 0 0 1
    outer loop
      vertex 50 50 50
      vertex 3 47 50
      vertex 47 47 50
    endloop
  endfacet
  facet normal 0 0 1
    outer loop
      vertex 47 47 50
      vertex 47 3 50
      vertex 50 0 50
    endloop
  endfacet
  facet normal 1 0 0
    outer loop
      vertex 50 0 50
      vertex 50 0 0
      vertex 50 50 0
    endloop
  endfacet
  facet normal 1 0 0
    outer loop
      vertex 50 50 50
      vertex 50 0 50
      vertex 50 50 0
    endloop
  endfacet
  facet normal 1 0 0
    outer loop
      vertex 3 47 3
      vertex 3 47 50
      vertex 3 3 50
    endloop
  endfacet
  facet normal 1 0 0
    outer loop
      vertex 3 3 3
      vertex 3 47 3
      vertex 3 3 50
    endloop
  endfacet
  facet normal 0 1 0
    outer loop
      vertex 47 3 50
      vertex 47 3 3
      vertex 3 3 50
    endloop
  endfacet
  facet normal 0 1 0
    outer loop
      vertex 3 3 50
      vertex 47 3 3
      vertex 3 3 3
    endloop
  endfacet
  facet normal -1 0 0
    outer loop
      vertex 47 47 50
      vertex 47 47 3
      vertex 47 3 50
    endloop
  endfacet
  facet normal -1 0 0
    outer loop
      vertex 47 3 50
      vertex 47 47 3
      vertex 47 3 3
    endloop
  endfacet
  facet normal 0 -1 0
    outer loop
      vertex 47 47 3
      vertex 47 47 50
      vertex 3 47 50
    endloop
  endfacet
  facet normal 0 -1 0
    outer loop
      vertex 3 47 3
      vertex 47 47 3
      vertex 3 47 50
    endloop
  endfacet
  facet normal 0 0 1
    outer loop
      vertex 47 3 3
      vertex 47 47 3
      vertex 3 47 3
    endloop
  endfacet
  facet normal 0 0 1
    outer loop
      vertex 3 3 3
      vertex 47 3 3
      vertex 3 47 3
    endloop
  endfacet
endsolid OpenSCAD_Model
